<svg width="183" height="36" viewBox="0 0 183 36" fill="none" xmlns="http://www.w3.org/2000/svg">
<path d="M7.49805 0.453125V36H0.173828V0.453125H7.49805ZM28.7871 0.453125L14.7002 18.0068L6.57031 26.7471L5.25195 19.8135L10.7451 12.2939L19.8027 0.453125H28.7871ZM20.4619 36L9.98828 19.5693L15.4082 15.0283L29.1289 36H20.4619ZM54.8125 30.2871V36H36.917V30.2871H54.8125ZM39.2852 0.453125V36H31.9609V0.453125H39.2852ZM82.8643 30.2871V36H63.9434V30.2871H82.8643ZM66.3359 0.453125V36H59.0117V0.453125H66.3359ZM80.3984 14.9307V20.4971H63.9434V14.9307H80.3984ZM82.8398 0.453125V6.19043H63.9434V0.453125H82.8398ZM98.0498 36H90.3105L90.3594 30.2871H98.0498C99.9704 30.2871 101.59 29.8558 102.908 28.9932C104.227 28.1143 105.219 26.8366 105.887 25.1602C106.57 23.4837 106.912 21.4574 106.912 19.0811V17.3477C106.912 15.5247 106.717 13.9215 106.326 12.5381C105.952 11.1546 105.39 9.99089 104.642 9.04688C103.893 8.10286 102.973 7.39486 101.883 6.92285C100.792 6.43457 99.5391 6.19043 98.123 6.19043H90.1641V0.453125H98.123C100.499 0.453125 102.672 0.860026 104.642 1.67383C106.627 2.47135 108.344 3.61882 109.793 5.11621C111.242 6.61361 112.356 8.40397 113.138 10.4873C113.935 12.5544 114.334 14.8574 114.334 17.3965V19.0811C114.334 21.6038 113.935 23.9069 113.138 25.9902C112.356 28.0736 111.242 29.8639 109.793 31.3613C108.361 32.8424 106.644 33.9899 104.642 34.8037C102.656 35.6012 100.459 36 98.0498 36ZM94.4609 0.453125V36H87.1367V0.453125H94.4609ZM143.509 30.2871V36H124.588V30.2871H143.509ZM126.98 0.453125V36H119.656V0.453125H126.98ZM141.043 14.9307V20.4971H124.588V14.9307H141.043ZM143.484 0.453125V6.19043H124.588V0.453125H143.484ZM170.633 30.2871V36H152.737V30.2871H170.633ZM155.105 0.453125V36H147.781V0.453125H155.105ZM182.62 0.453125V36H175.32V0.453125H182.62Z" fill="black"/>
</svg>
