<svg width="1920" height="1920" viewBox="0 0 1920 1920" fill="none" xmlns="http://www.w3.org/2000/svg">
<rect width="1920" height="1920" fill="#D9D9D9"/>
<path d="M253.096 804.406V1103H191.572V804.406H253.096ZM431.924 804.406L313.594 951.857L245.303 1025.28L234.229 967.033L280.371 903.869L356.455 804.406H431.924ZM361.992 1103L274.014 964.982L319.541 926.838L434.795 1103H361.992ZM650.537 1055.01V1103H500.215V1055.01H650.537ZM520.107 804.406V1103H458.584V804.406H520.107ZM886.172 1055.01V1103H727.236V1055.01H886.172ZM747.334 804.406V1103H685.811V804.406H747.334ZM865.459 926.018V972.775H727.236V926.018H865.459ZM885.967 804.406V852.6H727.236V804.406H885.967ZM1013.73 1103H948.721L949.131 1055.01H1013.73C1029.86 1055.01 1043.47 1051.39 1054.54 1044.14C1065.62 1036.76 1073.96 1026.03 1079.56 1011.95C1085.3 997.863 1088.17 980.842 1088.17 960.881V946.32C1088.17 931.008 1086.53 917.541 1083.25 905.92C1080.11 894.299 1075.39 884.523 1069.1 876.594C1062.81 868.664 1055.09 862.717 1045.93 858.752C1036.77 854.65 1026.24 852.6 1014.35 852.6H947.49V804.406H1014.35C1034.31 804.406 1052.56 807.824 1069.1 814.66C1085.78 821.359 1100.21 830.998 1112.37 843.576C1124.54 856.154 1133.91 871.193 1140.47 888.693C1147.17 906.057 1150.52 925.402 1150.52 946.73V960.881C1150.52 982.072 1147.17 1001.42 1140.47 1018.92C1133.91 1036.42 1124.54 1051.46 1112.37 1064.04C1100.34 1076.48 1085.92 1086.12 1069.1 1092.95C1052.42 1099.65 1033.96 1103 1013.73 1103ZM983.584 804.406V1103H922.061V804.406H983.584ZM1395.59 1055.01V1103H1236.65V1055.01H1395.59ZM1256.75 804.406V1103H1195.22V804.406H1256.75ZM1374.87 926.018V972.775H1236.65V926.018H1374.87ZM1395.38 804.406V852.6H1236.65V804.406H1395.38ZM1623.43 1055.01V1103H1473.11V1055.01H1623.43ZM1493 804.406V1103H1431.47V804.406H1493ZM1724.12 804.406V1103H1662.8V804.406H1724.12Z" fill="black"/>
</svg>
